<svg width="24" height="24" viewBox="0 0 24 24" fill="none" xmlns="http://www.w3.org/2000/svg">
<path d="M12 3C12.5522 3.00013 13 3.44779 13 4V17.5859L17.293 13.293C17.6835 12.9026 18.3166 12.9025 18.707 13.293C19.0974 13.6835 19.0974 14.3165 18.707 14.707L12.707 20.707C12.3166 21.0975 11.6835 21.0974 11.293 20.707L5.29298 14.707L5.22462 14.6309C4.90427 14.2381 4.92686 13.6591 5.29298 13.293C5.6591 12.927 6.23814 12.9043 6.63087 13.2246L6.70704 13.293L11 17.5859V4C11 3.44772 11.4477 3 12 3Z" fill="currentColor"/>
</svg>
