<svg width="24" height="24" viewBox="0 0 24 24" fill="none" xmlns="http://www.w3.org/2000/svg">
<path d="M9 5C9.55229 5 10 5.44772 10 6C10 6.55228 9.55229 7 9 7H8.79981C7.94342 7 7.36117 7.00035 6.91113 7.03711C6.58253 7.06396 6.37418 7.10762 6.22461 7.16113L6.0918 7.21777C5.76256 7.38555 5.48707 7.64085 5.29492 7.9541L5.21778 8.0918C5.13809 8.24819 5.07293 8.47272 5.03711 8.91113C5.00035 9.36117 5 9.94341 5 10.7998V15.2002C5 16.0566 5.00035 16.6388 5.03711 17.0889C5.07293 17.5273 5.13806 17.7517 5.21778 17.9082L5.29492 18.0459C5.48706 18.3592 5.76254 18.6145 6.0918 18.7822L6.22461 18.8389C6.37417 18.8924 6.58252 18.936 6.91113 18.9629C7.36117 18.9997 7.94341 19 8.79981 19H13.2002C14.0566 19 14.6388 18.9997 15.0889 18.9629C15.5273 18.9271 15.7518 18.8619 15.9082 18.7822L16.0459 18.7051C16.3592 18.5129 16.6145 18.2375 16.7822 17.9082L16.8389 17.7754C16.8924 17.6258 16.936 17.4174 16.9629 17.0889C16.9997 16.6388 17 16.0566 17 15.2002V15C17 14.4477 17.4477 14 18 14C18.5523 14 19 14.4477 19 15V15.2002C19 16.0237 19.001 16.7016 18.9561 17.252C18.9159 17.7438 18.8356 18.2011 18.6504 18.6328L18.5645 18.8164C18.2289 19.4749 17.7183 20.0259 17.0918 20.4102L16.8164 20.5645C16.3311 20.8117 15.814 20.9101 15.252 20.9561C14.7016 21.001 14.0237 21 13.2002 21H8.79981C7.97632 21 7.29843 21.001 6.74805 20.9561C6.2562 20.9159 5.79892 20.8356 5.36719 20.6504L5.1836 20.5645C4.52513 20.2289 3.97414 19.7183 3.58985 19.0918L3.43555 18.8164C3.1883 18.3311 3.08988 17.814 3.04395 17.252C2.99898 16.7016 3 16.0237 3 15.2002V10.7998C3 9.97631 2.99898 9.29843 3.04395 8.74805C3.08988 8.18599 3.18827 7.6689 3.43555 7.18359L3.58985 6.9082C3.97413 6.2817 4.52512 5.7711 5.1836 5.43555L5.36719 5.34961C5.79892 5.16442 6.2562 5.08414 6.74805 5.04395C7.29843 4.99898 7.97632 5 8.79981 5H9Z" fill="currentColor"/>
<path d="M20.1025 3.00488C20.6067 3.05621 21 3.48232 21 4V10C21 10.5523 20.5523 11 20 11C19.4477 11 19 10.5523 19 10V6.41406L11.707 13.707C11.3165 14.0976 10.6835 14.0976 10.293 13.707C9.90245 13.3165 9.90245 12.6835 10.293 12.293L17.5859 5H14C13.4477 5 13 4.55228 13 4C13 3.44772 13.4477 3 14 3H20L20.1025 3.00488Z" fill="currentColor"/>
</svg>
