<svg width="24" height="24" viewBox="0 0 24 24" fill="none" xmlns="http://www.w3.org/2000/svg">
<path d="M11.9999 12C13.0691 12 14.0758 12.1794 14.998 12.5137L15.3876 12.666L15.4804 12.7109C15.925 12.954 16.1217 13.4995 15.9208 13.9766C15.7197 14.4532 15.1922 14.6932 14.7079 14.5449L14.6112 14.5098L14.3173 14.3945C13.6188 14.1412 12.843 14 11.9999 14C9.56316 14.0001 7.63942 15.1793 6.5253 16.9697L6.31339 17.3359C6.10582 17.7224 6.16634 18.0769 6.41691 18.3887C6.69192 18.7305 7.19899 18.9999 7.79484 19H10.9999L11.1015 19.0049C11.6059 19.0559 11.9999 19.4821 11.9999 20C11.9999 20.5179 11.6059 20.9441 11.1015 20.9951L10.9999 21H7.79484C6.62332 20.9999 5.53059 20.4792 4.85734 19.6416C4.15991 18.7739 3.92353 17.5589 4.55265 16.3887L4.68839 16.1455C6.13055 13.6577 8.74717 12.0001 11.9999 12Z" fill="currentColor"/>
<path d="M19.1991 14.4004C19.5024 13.9943 20.0706 13.8763 20.5146 14.1426C20.9584 14.409 21.1206 14.9652 20.9052 15.4238L20.8573 15.5146L17.8573 20.5146C17.7117 20.7573 17.47 20.927 17.1923 20.9814C16.9491 21.029 16.6979 20.9842 16.4872 20.8584L16.4003 20.7998L14.4003 19.2998L14.3212 19.2344C13.9488 18.8909 13.8897 18.3145 14.2001 17.9004C14.5106 17.4864 15.0805 17.3814 15.5146 17.6426L15.5995 17.7002L16.7118 18.5342L19.1425 14.4854L19.1991 14.4004Z" fill="currentColor"/>
<path fill-rule="evenodd" clip-rule="evenodd" d="M11.9999 2C14.4852 2 16.4999 4.01472 16.4999 6.5C16.4999 8.98528 14.4852 11 11.9999 11C9.51473 10.9999 7.49991 8.98521 7.49991 6.5C7.49991 4.01479 9.51473 2.00012 11.9999 2ZM11.9999 4C10.6193 4.00012 9.49991 5.11936 9.49991 6.5C9.49991 7.88064 10.6193 8.99988 11.9999 9C13.3806 9 14.4999 7.88072 14.4999 6.5C14.4999 5.11928 13.3806 4 11.9999 4Z" fill="currentColor"/>
</svg>
